# xmcd
#
# Track frame offsets:
#	182
#	11260
#	24687
#	35212
#	45532
#	54885
#	66632
#	77110
#	88747
#	98602
#	109615
#	125752
#	136337
#	149172
#	161395
#	173370
#
# Disc length: 2441 seconds
#
# Revision: 0
# Processed by: cddbd v1.4PL0 Copyright (c) Steve Scherf et al.
# Submitted via: EasyCDDAExtractor 5.0.0.0
#
DISCID=d5098710
DTITLE=The Drifters - Greatest Hits
DYEAR=1977
DGENRE=R&B
TTITLE0=Save The Last Dance For Me
TTITLE1=On Broadway
TTITLE2=When My Little Girl Is Smiling
TTITLE3=Up On The Roof
TTITLE4=Saturday Night At The Movies
TTITLE5=Under The Boardwalk
TTITLE6=True Love, True Love
TTITLE7=This Magic Moment
TTITLE8=There Goes My Baby
TTITLE9=Dance With Me
TTITLE10=Cupid
TTITLE11=Oh My Love
TTITLE12=You Send Me
TTITLE13=Lonely Winds
TTITLE14=Hey Senorita
TTITLE15=Another Saturday Night
EXTD=
EXTT0=
EXTT1=
EXTT2=
EXTT3=
EXTT4=
EXTT5=
EXTT6=
EXTT7=
EXTT8=
EXTT9=
EXTT10=
EXTT11=
EXTT12=
EXTT13=
EXTT14=
EXTT15=
PLAYORDER=
